<svg xmlns="http://www.w3.org/2000/svg" version="1.1" xmlns:xlink="http://www.w3.org/1999/xlink" xmlns:svgjs="http://svgjs.dev/svgjs" width="472.52" height="425"><svg id="SvgjsSvg1060" data-name="Layer 2" xmlns="http://www.w3.org/2000/svg" xmlns:xlink="http://www.w3.org/1999/xlink" viewBox="0 0 472.52 425">
  <defs>
    <style>
      .cls-1 {
        fill: url(#linear-gradient);
      }

      .cls-1, .cls-2 {
        stroke-width: 0px;
      }

      .cls-2 {
        fill: #fff;
      }
    </style>
    <linearGradient id="SvgjsLinearGradient1059" x1="329.4" y1="517.16" x2="143.11" y2="-92.16" gradientUnits="userSpaceOnUse">
      <stop offset=".46" stop-color="#783dbd"></stop>
      <stop offset=".93" stop-color="#d700bb"></stop>
    </linearGradient>
  </defs>
  <g id="SvgjsG1058" data-name="Layer 1">
    <rect class="cls-1" width="472.52" height="425" rx="78.02" ry="78.02"></rect>
    <g>
      <path class="cls-2" d="m68.16,319.7c-3.83-2.13-5.97-4.47-6.39-7.03-.21-2.56,1.28-7.03,4.47-13.42,3.2-6.39,8.2-16.3,15.02-29.72,5.11-9.59,8.95-17.04,11.5-22.37,2.77-5.54,4.58-9.48,5.43-11.82,1.07-2.34,1.6-3.83,1.6-4.47-.43-1.92-.21-3.41.64-4.47.85-1.28,2.24-2.34,4.15-3.2,1.07-1.07,2.77-2.98,5.11-5.75,2.56-2.77,4.9-6.07,7.03-9.91,1.92-4.47,4.15-9.05,6.71-13.74,2.56-4.69,5.97-10.55,10.23-17.58,4.26-7.24,9.8-16.62,16.62-28.12,4.26-7.46,8.95-15.02,14.06-22.69,5.11-7.88,10.55-15.66,16.3-23.33,2.34-2.98,4.47-5.33,6.39-7.03,1.92-1.92,3.83-2.77,5.75-2.56,2.56,0,5.43.85,8.63,2.56,3.41,1.7,6.5,3.94,9.27,6.71s4.79,5.75,6.07,8.95c1.07,1.7,1.49,5.33,1.28,10.87-.21,5.54-.64,12.25-1.28,20.13-.64,7.88-1.38,16.3-2.24,25.25-.64,8.74-1.6,19.07-2.88,31-1.28,11.93-2.56,24.39-3.83,37.39-1.07,13-1.92,25.57-2.56,37.71-.64,11.93-.64,22.37,0,31.32.21,1.92.21,3.73,0,5.43s-.32,3.09-.32,4.15c-1.28,1.28-3.41,1.81-6.39,1.6-2.77,0-5.54-.64-8.31-1.92-2.56-1.28-4.05-2.88-4.47-4.79-.64-.64-1.07-1.49-1.28-2.56,0-1.28.11-3.83.32-7.67s.43-9.91.64-18.22l1.6-51.77-4.15.32c-1.92,0-5.54.21-10.87.64-5.33.43-11.08,1.07-17.26,1.92-6.18.64-11.93,1.38-17.26,2.24-5.11.64-8.63,1.28-10.55,1.92-1.92,0-4.26,1.28-7.03,3.83-2.56,2.56-5.01,5.86-7.35,9.91-.85,2.98-2.45,6.18-4.79,9.59-2.13,3.2-3.2,5.33-3.2,6.39-1.49,1.07-2.77,2.34-3.83,3.83-.85,1.49-1.28,2.24-1.28,2.24,0,1.28-1.07,4.47-3.2,9.59-1.92,4.9-4.37,10.44-7.35,16.62-2.98,5.97-5.97,11.19-8.95,15.66l-6.71,10.23-5.11-3.83Zm66.15-102.91s1.07-.21,3.2-.64c2.34-.43,5.01-.85,7.99-1.28,3.2-.64,6.07-.96,8.63-.96,8.95-2.13,15.45-3.52,19.49-4.15,4.05-.85,6.82-1.28,8.31-1.28,1.7,0,3.2.32,4.47.96.85,1.07,1.6,1.7,2.24,1.92.85.21,1.28.32,1.28.32.21-.43.53-2.88.96-7.35.43-4.47.96-10.01,1.6-16.62.85-6.6,1.6-13.42,2.24-20.45.85-7.24,1.49-13.85,1.92-19.81.43-6.18.75-10.87.96-14.06.21-4.05.43-7.67.64-10.87.21-3.41.32-5.11.32-5.11-1.28,0-4.05,2.34-8.31,7.03-4.05,4.69-8.63,10.87-13.74,18.54-5.11,7.67-9.91,15.87-14.38,24.61-2.13,4.05-4.15,7.67-6.07,10.87s-3.41,4.79-4.47,4.79c-.43.43-1.7,2.34-3.83,5.75-1.92,3.2-4.05,6.92-6.39,11.19-2.34,4.05-4.26,7.78-5.75,11.19-1.49,3.2-1.92,5.01-1.28,5.43Z"></path>
      <path class="cls-2" d="m251.27,328.32c-.85,2.13-2.45,3.3-4.79,3.52-2.13.21-5.01-1.07-8.63-3.83-2.56-2.56-4.26-4.58-5.11-6.07-.64-1.28-.21-3.62,1.28-7.03,1.49-3.2,4.05-8.95,7.67-17.26.85-5.11,2.34-10.23,4.47-15.34,2.13-5.33,3.73-9.05,4.79-11.19.85-2.98,2.56-7.88,5.11-14.7,2.77-7.03,5.86-14.81,9.27-23.33,3.62-8.52,7.03-16.51,10.23-23.97,3.2-7.67,5.54-13.42,7.03-17.26,3.62-8.52,7.35-17.47,11.19-26.84,3.83-9.37,9.05-21.2,15.66-35.47.85-2.13,1.28-4.37,1.28-6.71.21-2.34-1.49-3.52-5.11-3.52-2.13-2.34-3.3-4.69-3.52-7.03-.21-2.56.85-4.37,3.2-5.43l16.62-6.71c10.01-2.34,20.24-2.98,30.68-1.92,10.65.85,20.67,3.73,30.04,8.63,10.23,5.97,17.47,12.04,21.73,18.22,4.26,5.97,6.39,12.04,6.39,18.22.21,6.18-.85,12.25-3.2,18.22-1.7,4.47-5.01,9.37-9.91,14.7-4.69,5.33-10.23,10.65-16.62,15.98-6.18,5.33-12.68,10.23-19.49,14.7-6.6,4.26-12.78,7.56-18.54,9.91-5.33,2.56-10.87,4.79-16.62,6.71-5.75,1.92-11.72,3.83-17.9,5.75-3.41.85-7.46,1.28-12.14,1.28s-8.2-.43-10.55-1.28l-5.43,15.02c-2.13,7.67-5.86,19.07-11.19,34.2-5.11,15.13-11.08,31.75-17.9,49.85Zm126.87,3.52c-1.7.64-3.73.85-6.07.64-2.13-.21-5.65-1.92-10.55-5.11-9.37-5.54-18.75-12.25-28.12-20.13-9.37-7.88-19.92-18.54-31.64-31.96-4.47-5.33-8.31-10.23-11.5-14.7-2.98-4.47-6.18-10.76-9.59-18.86l-4.47-17.26,8.63-4.79,11.5,11.5c3.41,7.46,7.78,14.59,13.1,21.41,5.54,6.82,10.65,12.89,15.34,18.22,3.83,4.47,9.05,9.91,15.66,16.3,6.6,6.18,13.64,12.14,21.09,17.9,7.46,5.75,14.17,10.12,20.13,13.1,1.28,1.07,1.7,2.66,1.28,4.79s-1.17,4.05-2.24,5.75c-.85,1.92-1.7,2.98-2.56,3.2Zm-82.45-118.88c4.9-.43,10.65-1.6,17.26-3.52,6.6-2.13,13.21-4.58,19.81-7.35,6.18-2.98,12.68-6.5,19.49-10.55,7.03-4.26,13.53-8.95,19.49-14.06,5.97-5.11,10.76-10.44,14.38-15.98,3.83-5.54,5.54-11.08,5.11-16.62,0-2.77-1.07-5.65-3.2-8.63-2.13-2.98-4.69-5.65-7.67-7.99-2.98-2.34-5.86-3.94-8.63-4.79-8.52-2.13-15.55-3.52-21.09-4.15-5.54-.64-9.8-.21-12.78,1.28-2.98,1.28-5.01,4.05-6.07,8.31,0,.64-.85,2.77-2.56,6.39-1.7,3.62-3.83,8.1-6.39,13.42-2.34,5.33-4.69,10.97-7.03,16.94-6.18,12.57-10.87,22.16-14.06,28.76-3.2,6.39-5.22,10.87-6.07,13.42-.85,2.56-.85,4.26,0,5.11Z"></path>
    </g>
  </g>
</svg><style>@media (prefers-color-scheme: light) { :root { filter: none; } }
@media (prefers-color-scheme: dark) { :root { filter: none; } }
</style></svg>